<svg width="151" height="12" viewBox="0 0 151 12" fill="none" xmlns="http://www.w3.org/2000/svg">
<g id="buildStuff">
<path d="M0.868002 8.20399C0.756002 8.23599 0.668002 8.21599 0.604002 8.14399C0.532002 8.07199 0.496002 7.99199 0.496002 7.90399C0.496002 7.75999 0.564002 7.67199 0.700002 7.63999C0.924002 7.57599 1.124 7.50799 1.3 7.43599C1.476 7.36399 1.684 7.29999 1.924 7.24399C1.988 7.05999 2.056 6.91199 2.128 6.79999C2.208 6.66399 2.292 6.52799 2.38 6.39199C2.476 6.25599 2.564 6.09999 2.644 5.92399C2.9 5.37999 3.112 4.86399 3.28 4.37599C3.448 3.87999 3.6 3.41199 3.736 2.97199C3.872 2.53199 4.024 2.12399 4.192 1.74799C3.912 1.76399 3.66 1.79199 3.436 1.83199C3.212 1.86399 2.964 1.93199 2.692 2.03599C2.644 2.05199 2.604 2.05999 2.572 2.05999C2.492 2.05999 2.424 2.02799 2.368 1.96399C2.32 1.89999 2.296 1.82799 2.296 1.74799C2.296 1.69199 2.308 1.63999 2.332 1.59199C2.364 1.54399 2.412 1.50799 2.476 1.48399C2.844 1.33999 3.184 1.25199 3.496 1.21999C3.808 1.17999 4.152 1.15199 4.528 1.13599C4.584 1.13599 4.636 1.13599 4.684 1.13599C4.732 1.12799 4.78 1.12399 4.828 1.12399C5.108 1.12399 5.36 1.13999 5.584 1.17199C5.816 1.19599 6.072 1.20799 6.352 1.20799C6.44 1.20799 6.5 1.22799 6.532 1.26799C6.572 1.29999 6.592 1.33599 6.592 1.37599C6.592 1.43199 6.564 1.49199 6.508 1.55599C6.452 1.61199 6.368 1.63999 6.256 1.63999C5.936 1.63199 5.676 1.63999 5.476 1.66399C5.276 1.67999 5.048 1.69599 4.792 1.71199C4.6 2.12799 4.408 2.57999 4.216 3.06799C4.032 3.55599 3.848 4.04799 3.664 4.54399C3.48 5.03999 3.304 5.51599 3.136 5.97199C2.968 6.41999 2.804 6.81999 2.644 7.17199C2.892 7.17199 3.124 7.19199 3.34 7.23199C3.564 7.27199 3.792 7.30799 4.024 7.33999C4.112 7.34799 4.176 7.37599 4.216 7.42399C4.256 7.47199 4.276 7.52399 4.276 7.57999C4.276 7.64399 4.248 7.69999 4.192 7.74799C4.136 7.79599 4.056 7.81599 3.952 7.80799C3.776 7.78399 3.612 7.76399 3.46 7.74799C3.316 7.73199 3.164 7.72399 3.004 7.72399C2.908 7.72399 2.804 7.72799 2.692 7.73599C2.588 7.74399 2.48 7.75599 2.368 7.77199C2.304 7.85999 2.216 7.90399 2.104 7.90399C2.032 7.90399 1.976 7.88799 1.936 7.85599C1.768 7.90399 1.604 7.95599 1.444 8.01199C1.292 8.07599 1.1 8.13999 0.868002 8.20399Z" fill="black"/>
<path d="M9.11013 8.34799C8.98213 8.34799 8.85413 8.29599 8.72613 8.19199C8.60613 8.09599 8.55413 7.93599 8.57013 7.71199C8.59413 7.50399 8.65013 7.22799 8.73813 6.88399C8.83413 6.53199 8.95413 6.14399 9.09813 5.71999C9.25013 5.29599 9.41013 4.85999 9.57813 4.41199C9.75413 3.95599 9.93013 3.51599 10.1061 3.09199C10.2821 2.65999 10.4501 2.27199 10.6101 1.92799C10.7701 1.57599 10.9061 1.29199 11.0181 1.07599C11.0901 0.947992 11.1901 0.883992 11.3181 0.883992C11.3901 0.883992 11.4541 0.911992 11.5101 0.967992C11.5661 1.01599 11.5941 1.08799 11.5941 1.18399C11.5941 1.21599 11.5821 1.28399 11.5581 1.38799C11.5421 1.49199 11.5141 1.59999 11.4741 1.71199C11.4421 1.82399 11.4061 1.91599 11.3661 1.98799C11.2861 2.11599 11.1901 2.24799 11.0781 2.38399C10.9661 2.51999 10.8661 2.67999 10.7781 2.86399C10.5861 3.27999 10.3941 3.71999 10.2021 4.18399C10.0101 4.63999 9.83413 5.08799 9.67413 5.52799C9.51413 5.96799 9.38213 6.36399 9.27813 6.71599C9.18213 7.06799 9.12613 7.34799 9.11013 7.55599C9.11013 7.61199 9.13413 7.67199 9.18213 7.73599C9.23813 7.79999 9.29013 7.86399 9.33813 7.92799C9.39413 7.99199 9.42213 8.05599 9.42213 8.11999C9.42213 8.18399 9.38213 8.24399 9.30213 8.29999C9.26213 8.33199 9.19813 8.34799 9.11013 8.34799Z" fill="black"/>
<path d="M13.2971 3.40399C13.2571 3.45199 13.2051 3.45599 13.1411 3.41599C13.0851 3.37599 13.0371 3.31599 12.9971 3.23599C12.9571 3.14799 12.9451 3.06399 12.9611 2.98399H12.9731C13.0051 2.86399 13.0451 2.76399 13.0931 2.68399C13.1411 2.60399 13.2051 2.52399 13.2851 2.44399C13.3331 2.39599 13.3971 2.37199 13.4771 2.37199C13.5491 2.37199 13.6131 2.39599 13.6691 2.44399C13.7331 2.48399 13.7651 2.53599 13.7651 2.59999C13.7651 2.63199 13.7531 2.66799 13.7291 2.70799C13.7051 2.73999 13.6571 2.82399 13.5851 2.95999C13.5211 3.09599 13.4251 3.24399 13.2971 3.40399ZM11.7851 7.83199C11.6571 7.83199 11.5291 7.78399 11.4011 7.68799C11.2811 7.58399 11.2331 7.41999 11.2571 7.19599C11.2891 6.88399 11.3331 6.61999 11.3891 6.40399C11.4451 6.18799 11.5091 5.99199 11.5811 5.81599C11.6531 5.63199 11.7291 5.43599 11.8091 5.22799C11.8971 5.01999 11.9851 4.76799 12.0731 4.47199C12.1211 4.33599 12.2211 4.26799 12.3731 4.26799C12.4771 4.26799 12.5691 4.29999 12.6491 4.36399C12.7291 4.42799 12.7531 4.51599 12.7211 4.62799C12.6171 4.96399 12.5131 5.23599 12.4091 5.44399C12.3051 5.65199 12.2091 5.83599 12.1211 5.99599C12.0331 6.14799 11.9571 6.31599 11.8931 6.49999C11.8371 6.67599 11.8011 6.90399 11.7851 7.18399C11.7851 7.20799 11.8371 7.25999 11.9411 7.33999C12.0451 7.41199 12.0971 7.49599 12.0971 7.59199C12.0971 7.66399 12.0571 7.72799 11.9771 7.78399C11.9371 7.81599 11.8731 7.83199 11.7851 7.83199Z" fill="black"/>
<path d="M13.9357 8.35999C13.8237 8.35999 13.7157 8.31999 13.6117 8.23999C13.5077 8.16799 13.4557 8.03599 13.4557 7.84399C13.4557 7.81999 13.4557 7.79599 13.4557 7.77199C13.4557 7.73999 13.4597 7.70799 13.4677 7.67599C13.6437 6.68399 13.8557 5.82799 14.1037 5.10799C14.3517 4.38799 14.6117 3.75999 14.8837 3.22399C15.1557 2.68799 15.4037 2.20399 15.6277 1.77199C15.6917 1.65199 15.7757 1.56399 15.8797 1.50799C15.9917 1.44399 16.0957 1.41199 16.1917 1.41199C16.3677 1.41199 16.4557 1.47999 16.4557 1.61599C16.4557 1.71199 16.4077 1.81999 16.3117 1.93999C16.1437 2.13199 15.9557 2.41199 15.7477 2.77999C15.5477 3.14799 15.3477 3.55999 15.1477 4.01599C14.9477 4.46399 14.7717 4.91599 14.6197 5.37199C14.6837 5.33199 14.7477 5.29599 14.8117 5.26399C14.8757 5.22399 14.9357 5.18799 14.9917 5.15599C15.1837 5.05999 15.4037 4.95599 15.6517 4.84399C15.9077 4.72399 16.1637 4.61999 16.4197 4.53199C16.6757 4.43599 16.9037 4.37199 17.1037 4.33999C17.1437 4.33199 17.1877 4.32399 17.2357 4.31599C17.2917 4.30799 17.3437 4.30399 17.3917 4.30399C17.4477 4.30399 17.4917 4.31999 17.5237 4.35199C17.5637 4.38399 17.5837 4.44399 17.5837 4.53199C17.5837 4.69199 17.5397 4.79599 17.4517 4.84399C17.3717 4.89199 17.2837 4.92399 17.1877 4.93999C17.0357 4.95599 16.8397 5.00799 16.5997 5.09599C16.3677 5.17599 16.1277 5.27199 15.8797 5.38399C15.6397 5.48799 15.4277 5.58799 15.2437 5.68399C15.1317 5.72399 15.0317 5.78799 14.9437 5.87599C14.8557 5.95599 14.7917 6.02799 14.7517 6.09199C14.7117 6.14799 14.7077 6.16799 14.7397 6.15199C14.7637 6.23199 14.8317 6.33199 14.9437 6.45199C15.0557 6.57199 15.1877 6.69199 15.3397 6.81199C15.4997 6.92399 15.6557 7.02799 15.8077 7.12399C15.9677 7.21199 16.0997 7.27599 16.2037 7.31599C16.3877 7.37199 16.5157 7.43999 16.5877 7.51999C16.6677 7.59199 16.7077 7.65999 16.7077 7.72399C16.7077 7.78799 16.6757 7.84399 16.6117 7.89199C16.5557 7.93999 16.4837 7.96399 16.3957 7.96399C16.3637 7.96399 16.3237 7.95599 16.2757 7.93999C16.0997 7.87599 15.8757 7.77599 15.6037 7.63999C15.3397 7.50399 15.0837 7.34399 14.8357 7.15999C14.5877 6.97599 14.3997 6.78799 14.2717 6.59599H14.2597C14.2277 6.77199 14.1877 6.97199 14.1397 7.19599C14.0997 7.41999 14.0837 7.59999 14.0917 7.73599C14.0917 7.78399 14.1237 7.83999 14.1877 7.90399C14.2597 7.95999 14.2957 8.02399 14.2957 8.09599C14.2957 8.16799 14.2517 8.23599 14.1637 8.29999C14.0997 8.33999 14.0237 8.35999 13.9357 8.35999Z" fill="black"/>
<path d="M19.1178 8.68399C19.0538 8.68399 18.9778 8.67199 18.8898 8.64799C18.4018 8.48799 18.0458 8.22399 17.8218 7.85599C17.5978 7.47999 17.4858 7.08399 17.4858 6.66799C17.4858 6.60399 17.4858 6.54399 17.4858 6.48799C17.4938 6.42399 17.5018 6.36399 17.5098 6.30799C17.5818 5.85199 17.7338 5.44799 17.9658 5.09599C18.2058 4.74399 18.4738 4.45599 18.7698 4.23199C19.0738 3.99999 19.3498 3.85199 19.5978 3.78799C19.7578 3.74799 19.9178 3.71599 20.0778 3.69199C20.2378 3.65999 20.3938 3.64399 20.5458 3.64399C20.9298 3.64399 21.2578 3.72799 21.5298 3.89599C21.8018 4.06399 21.9378 4.33999 21.9378 4.72399C21.9378 4.93999 21.8698 5.13599 21.7338 5.31199C21.6058 5.48799 21.4418 5.63999 21.2418 5.76799C21.0498 5.88799 20.8618 5.98399 20.6778 6.05599C20.3978 6.16799 20.0778 6.25199 19.7178 6.30799C19.3658 6.36399 19.0338 6.39199 18.7218 6.39199C18.5218 6.39199 18.3378 6.37999 18.1698 6.35599V6.36799C18.1698 6.39999 18.1658 6.43199 18.1578 6.46399C18.1498 6.48799 18.1458 6.51599 18.1458 6.54799C18.1378 6.57999 18.1338 6.61199 18.1338 6.64399C18.1338 6.66799 18.1338 6.69199 18.1338 6.71599C18.1338 6.96399 18.1818 7.18399 18.2778 7.37599C18.3818 7.55999 18.5018 7.71999 18.6378 7.85599C18.7738 7.98399 18.8858 8.08799 18.9738 8.16799C19.1178 8.23999 19.2178 8.30799 19.2738 8.37199C19.3378 8.44399 19.3698 8.49999 19.3698 8.53999C19.3698 8.63599 19.2858 8.68399 19.1178 8.68399ZM19.0458 5.85199C19.2858 5.85199 19.5378 5.83599 19.8018 5.80399C20.0658 5.76399 20.3098 5.69199 20.5338 5.58799C20.7098 5.49999 20.8738 5.38399 21.0258 5.23999C21.1778 5.08799 21.2538 4.90799 21.2538 4.69999C21.2538 4.53999 21.1898 4.41999 21.0618 4.33999C20.9338 4.25999 20.7538 4.21999 20.5218 4.21999C20.2578 4.21999 19.9698 4.26799 19.6578 4.36399C19.5458 4.39599 19.4058 4.47199 19.2378 4.59199C19.0778 4.71199 18.9138 4.87599 18.7458 5.08399C18.5778 5.28399 18.4378 5.52399 18.3258 5.80399C18.4218 5.81199 18.5298 5.82399 18.6498 5.83999C18.7778 5.84799 18.9098 5.85199 19.0458 5.85199Z" fill="black"/>
<path d="M27.7205 8.65999C27.6885 8.65999 27.6605 8.65599 27.6365 8.64799C27.6125 8.64799 27.5845 8.64399 27.5525 8.63599C27.3285 8.57999 27.1085 8.49199 26.8925 8.37199C26.6845 8.25199 26.5125 8.07599 26.3765 7.84399C26.2405 7.60399 26.1725 7.29199 26.1725 6.90799C26.1725 6.75599 26.1845 6.59199 26.2085 6.41599C26.2485 6.13599 26.3205 5.80799 26.4245 5.43199C26.5365 5.04799 26.6685 4.64799 26.8205 4.23199H26.8085C26.7605 4.23199 26.7165 4.23999 26.6765 4.25599C26.6365 4.27199 26.5965 4.27999 26.5565 4.27999C26.4285 4.27999 26.3645 4.20399 26.3645 4.05199C26.3645 3.96399 26.4005 3.87999 26.4725 3.79999C26.5445 3.71999 26.6125 3.67999 26.6765 3.67999L27.0365 3.66799C27.2365 3.14799 27.4365 2.65599 27.6365 2.19199C27.8445 1.71999 28.0205 1.34799 28.1645 1.07599C28.2045 1.00399 28.2605 0.951992 28.3325 0.919992C28.4125 0.879992 28.4925 0.859992 28.5725 0.859992C28.6525 0.859992 28.7205 0.879992 28.7765 0.919992C28.8405 0.951992 28.8725 0.999993 28.8725 1.06399C28.8725 1.07999 28.8645 1.11199 28.8485 1.15999L28.1045 2.77999C28.0325 2.93199 27.9645 3.07599 27.9005 3.21199C27.8445 3.34799 27.7845 3.48399 27.7205 3.61999C27.8805 3.61999 28.0445 3.62399 28.2125 3.63199C28.3885 3.63999 28.5845 3.65599 28.8005 3.67999C28.8405 3.68799 28.8805 3.71599 28.9205 3.76399C28.9605 3.81199 28.9805 3.86399 28.9805 3.91999C28.9805 3.95999 28.9645 3.99999 28.9325 4.03999C28.9085 4.07199 28.8525 4.09199 28.7645 4.09999C28.5725 4.12399 28.3605 4.13999 28.1285 4.14799C27.8965 4.14799 27.6885 4.15199 27.5045 4.15999C27.3205 4.64799 27.1725 5.09199 27.0605 5.49199C26.9565 5.89199 26.8725 6.26799 26.8085 6.61999C26.8005 6.67599 26.7925 6.73199 26.7845 6.78799C26.7845 6.84399 26.7845 6.89599 26.7845 6.94399C26.7845 7.30399 26.8805 7.57199 27.0725 7.74799C27.2645 7.92399 27.4805 8.04799 27.7205 8.11999C27.8645 8.16799 27.9645 8.21599 28.0205 8.26399C28.0845 8.31999 28.1165 8.37199 28.1165 8.41999C28.1165 8.48399 28.0765 8.53999 27.9965 8.58799C27.9245 8.63599 27.8325 8.65999 27.7205 8.65999Z" fill="black"/>
<path d="M30.3 7.77199C30.252 7.77199 30.204 7.77199 30.156 7.77199C30.108 7.76399 30.06 7.75599 30.012 7.74799C29.684 7.70799 29.428 7.55199 29.244 7.27999C29.068 6.99999 28.98 6.68799 28.98 6.34399C28.98 6.11999 29.024 5.88399 29.112 5.63599C29.208 5.37999 29.356 5.14799 29.556 4.93999C29.756 4.72399 29.988 4.55199 30.252 4.42399C30.516 4.29599 30.784 4.23199 31.056 4.23199C31.192 4.23199 31.32 4.24799 31.44 4.27999C31.568 4.31199 31.632 4.37599 31.632 4.47199C31.632 4.53599 31.596 4.59999 31.524 4.66399C31.46 4.71999 31.372 4.73599 31.26 4.71199C31.228 4.70399 31.176 4.69999 31.104 4.69999C30.912 4.69999 30.716 4.75199 30.516 4.85599C30.316 4.95999 30.136 5.09999 29.976 5.27599C29.816 5.44399 29.7 5.63199 29.628 5.83999C29.572 5.99999 29.544 6.15999 29.544 6.31999C29.544 6.56799 29.6 6.77999 29.712 6.95599C29.832 7.13199 29.968 7.21999 30.12 7.21999C30.16 7.22799 30.196 7.23199 30.228 7.23199C30.268 7.23199 30.304 7.23199 30.336 7.23199C30.688 7.23199 31.024 7.13599 31.344 6.94399C31.672 6.74399 31.924 6.52799 32.1 6.29599C32.188 6.15999 32.248 6.03999 32.28 5.93599C32.312 5.82399 32.328 5.73199 32.328 5.65999C32.328 5.49999 32.28 5.39199 32.184 5.33599C32.088 5.27999 32 5.25599 31.92 5.26399C31.792 5.27999 31.668 5.29999 31.548 5.32399C31.428 5.33999 31.324 5.36799 31.236 5.40799C31.188 5.42399 31.152 5.43199 31.128 5.43199C31.048 5.43199 30.98 5.39999 30.924 5.33599C30.876 5.27199 30.852 5.20399 30.852 5.13199C30.852 5.00399 30.912 4.91999 31.032 4.87999C31.144 4.83999 31.276 4.80399 31.428 4.77199C31.58 4.73999 31.736 4.71599 31.896 4.69999C31.928 4.69199 31.956 4.68799 31.98 4.68799C32.004 4.68799 32.032 4.68799 32.064 4.68799C32.352 4.68799 32.576 4.77599 32.736 4.95199C32.896 5.11999 32.976 5.32799 32.976 5.57599C32.976 5.72799 32.94 5.89199 32.868 6.06799C32.796 6.24399 32.68 6.41199 32.52 6.57199C32.376 6.75599 32.192 6.93999 31.968 7.12399C31.744 7.30799 31.492 7.46399 31.212 7.59199C30.932 7.71199 30.628 7.77199 30.3 7.77199Z" fill="black"/>
<path d="M38.0016 8.13199C37.7856 8.13199 37.5816 8.10399 37.3896 8.04799C37.1976 7.99999 37.0256 7.91199 36.8736 7.78399C36.8176 7.72799 36.7896 7.65199 36.7896 7.55599C36.7896 7.44399 36.8256 7.33599 36.8976 7.23199C36.9776 7.12799 37.0616 7.07599 37.1496 7.07599C37.1976 7.07599 37.2456 7.09999 37.2936 7.14799C37.3416 7.20399 37.3976 7.27199 37.4616 7.35199C37.5336 7.43199 37.6336 7.49199 37.7616 7.53199C37.8016 7.53999 37.8456 7.54799 37.8936 7.55599C37.9416 7.55599 37.9936 7.55599 38.0496 7.55599C38.1696 7.55599 38.2936 7.54799 38.4216 7.53199C38.5576 7.51599 38.6656 7.49999 38.7456 7.48399C39.1296 7.38799 39.5096 7.23999 39.8856 7.03999C40.2616 6.83999 40.6016 6.60799 40.9056 6.34399C41.2096 6.07999 41.4536 5.79599 41.6376 5.49199C41.8216 5.18799 41.9136 4.87999 41.9136 4.56799C41.9136 4.33599 41.8056 4.21999 41.5896 4.21999C41.4616 4.21999 41.2936 4.25199 41.0856 4.31599C40.8776 4.37999 40.6616 4.46399 40.4376 4.56799C40.2136 4.67199 40.0016 4.78799 39.8016 4.91599C39.4736 5.13199 39.1936 5.35999 38.9616 5.59999C38.7296 5.83999 38.4896 6.08799 38.2416 6.34399C38.1936 6.39199 38.1296 6.41599 38.0496 6.41599C37.9696 6.41599 37.8936 6.39599 37.8216 6.35599C37.7496 6.30799 37.7136 6.24399 37.7136 6.16399C37.7136 6.09999 37.7416 6.03599 37.7976 5.97199C37.9256 5.81199 38.0576 5.57999 38.1936 5.27599C38.3296 4.97199 38.4616 4.63599 38.5896 4.26799C38.7256 3.89999 38.8536 3.53999 38.9736 3.18799C39.0936 2.82799 39.2056 2.51199 39.3096 2.23999C39.4376 1.89599 39.5416 1.56799 39.6216 1.25599C39.7016 0.943992 39.7816 0.671992 39.8616 0.439992C39.9016 0.319992 39.9856 0.259992 40.1136 0.259992C40.2016 0.259992 40.2856 0.291992 40.3656 0.355992C40.4536 0.411992 40.4976 0.487992 40.4976 0.583992C40.4976 0.591992 40.4936 0.607992 40.4856 0.631992C40.4856 0.647992 40.4856 0.663992 40.4856 0.679992V0.691992C40.3656 1.03599 40.2256 1.40799 40.0656 1.80799C39.9056 2.19999 39.7176 2.65599 39.5016 3.17599C39.2936 3.69599 39.0496 4.30799 38.7696 5.01199C38.9376 4.85999 39.1256 4.70799 39.3336 4.55599C39.5416 4.39599 39.7816 4.25199 40.0536 4.12399C40.2776 4.01199 40.5376 3.90399 40.8336 3.79999C41.1296 3.68799 41.3856 3.63199 41.6016 3.63199C41.9296 3.63199 42.1616 3.74399 42.2976 3.96799C42.4336 4.18399 42.5016 4.41999 42.5016 4.67599C42.5016 5.04399 42.3856 5.41199 42.1536 5.77999C41.9296 6.14799 41.6296 6.48799 41.2536 6.79999C40.8776 7.11199 40.4656 7.37999 40.0176 7.60399C39.5696 7.81999 39.1256 7.97199 38.6856 8.05999C38.4616 8.10799 38.2336 8.13199 38.0016 8.13199Z" fill="black"/>
<path d="M44.5218 7.67599C44.3858 7.67599 44.2458 7.65599 44.1018 7.61599C43.9578 7.57599 43.8138 7.51599 43.6698 7.43599C43.4058 7.28399 43.2218 7.08799 43.1178 6.84799C43.0138 6.60799 42.9618 6.35199 42.9618 6.07999C42.9618 5.95199 42.9698 5.82799 42.9858 5.70799C43.0018 5.57999 43.0258 5.45199 43.0578 5.32399C43.1218 5.05999 43.2338 4.81999 43.3938 4.60399C43.5538 4.37999 43.7338 4.19199 43.9338 4.03999C44.1338 3.88799 44.3258 3.79199 44.5098 3.75199C44.5338 3.74399 44.5658 3.73999 44.6058 3.73999C44.7178 3.73999 44.8098 3.77199 44.8818 3.83599C44.9538 3.89999 44.9898 3.97199 44.9898 4.05199C44.9898 4.14799 44.9338 4.22399 44.8218 4.27999V4.29199C44.6378 4.37199 44.4738 4.45599 44.3298 4.54399C44.1938 4.62399 44.0738 4.73599 43.9698 4.87999C43.8658 5.02399 43.7698 5.23199 43.6818 5.50399C43.6338 5.64799 43.6098 5.83999 43.6098 6.07999C43.6098 6.26399 43.6338 6.43999 43.6818 6.60799C43.7378 6.76799 43.8298 6.87599 43.9578 6.93199C44.0938 6.98799 44.2378 7.01599 44.3898 7.01599C44.7178 7.01599 45.0418 6.90399 45.3618 6.67999C45.6818 6.44799 45.9658 6.20799 46.2138 5.95999C46.4378 5.73599 46.6458 5.48399 46.8378 5.20399C47.0378 4.91599 47.2058 4.65199 47.3418 4.41199C47.4778 4.16399 47.5578 3.98399 47.5818 3.87199C47.6138 3.73599 47.7018 3.66799 47.8458 3.66799C47.9338 3.66799 48.0138 3.70399 48.0858 3.77599C48.1578 3.83999 48.1778 3.92799 48.1458 4.03999C48.0978 4.20799 48.0018 4.42799 47.8578 4.69999C47.7218 4.97199 47.5538 5.25599 47.3538 5.55199C47.1618 5.83999 46.9578 6.10399 46.7418 6.34399C46.5658 6.54399 46.3618 6.74799 46.1298 6.95599C45.8978 7.15599 45.6458 7.32799 45.3738 7.47199C45.1018 7.60799 44.8178 7.67599 44.5218 7.67599Z" fill="black"/>
<path d="M50.3283 3.40399C50.2883 3.45199 50.2363 3.45599 50.1723 3.41599C50.1163 3.37599 50.0683 3.31599 50.0283 3.23599C49.9883 3.14799 49.9763 3.06399 49.9923 2.98399H50.0043C50.0363 2.86399 50.0763 2.76399 50.1243 2.68399C50.1723 2.60399 50.2363 2.52399 50.3163 2.44399C50.3643 2.39599 50.4283 2.37199 50.5083 2.37199C50.5803 2.37199 50.6443 2.39599 50.7003 2.44399C50.7643 2.48399 50.7963 2.53599 50.7963 2.59999C50.7963 2.63199 50.7843 2.66799 50.7603 2.70799C50.7363 2.73999 50.6883 2.82399 50.6163 2.95999C50.5523 3.09599 50.4563 3.24399 50.3283 3.40399ZM48.8163 7.83199C48.6883 7.83199 48.5603 7.78399 48.4323 7.68799C48.3123 7.58399 48.2643 7.41999 48.2883 7.19599C48.3203 6.88399 48.3643 6.61999 48.4203 6.40399C48.4763 6.18799 48.5403 5.99199 48.6123 5.81599C48.6843 5.63199 48.7603 5.43599 48.8403 5.22799C48.9283 5.01999 49.0163 4.76799 49.1043 4.47199C49.1523 4.33599 49.2523 4.26799 49.4043 4.26799C49.5083 4.26799 49.6003 4.29999 49.6803 4.36399C49.7603 4.42799 49.7843 4.51599 49.7523 4.62799C49.6483 4.96399 49.5443 5.23599 49.4403 5.44399C49.3363 5.65199 49.2403 5.83599 49.1523 5.99599C49.0643 6.14799 48.9883 6.31599 48.9243 6.49999C48.8683 6.67599 48.8323 6.90399 48.8163 7.18399C48.8163 7.20799 48.8683 7.25999 48.9723 7.33999C49.0763 7.41199 49.1283 7.49599 49.1283 7.59199C49.1283 7.66399 49.0883 7.72799 49.0083 7.78399C48.9683 7.81599 48.9043 7.83199 48.8163 7.83199Z" fill="black"/>
<path d="M51.075 8.34799C50.947 8.34799 50.819 8.29599 50.691 8.19199C50.571 8.09599 50.519 7.93599 50.535 7.71199C50.559 7.50399 50.615 7.22799 50.703 6.88399C50.799 6.53199 50.919 6.14399 51.063 5.71999C51.215 5.29599 51.375 4.85999 51.543 4.41199C51.719 3.95599 51.895 3.51599 52.071 3.09199C52.247 2.65999 52.415 2.27199 52.575 1.92799C52.735 1.57599 52.871 1.29199 52.983 1.07599C53.055 0.947992 53.155 0.883992 53.283 0.883992C53.355 0.883992 53.419 0.911992 53.475 0.967992C53.531 1.01599 53.559 1.08799 53.559 1.18399C53.559 1.21599 53.547 1.28399 53.523 1.38799C53.507 1.49199 53.479 1.59999 53.439 1.71199C53.407 1.82399 53.371 1.91599 53.331 1.98799C53.251 2.11599 53.155 2.24799 53.043 2.38399C52.931 2.51999 52.831 2.67999 52.743 2.86399C52.551 3.27999 52.359 3.71999 52.167 4.18399C51.975 4.63999 51.799 5.08799 51.639 5.52799C51.479 5.96799 51.347 6.36399 51.243 6.71599C51.147 7.06799 51.091 7.34799 51.075 7.55599C51.075 7.61199 51.099 7.67199 51.147 7.73599C51.203 7.79999 51.255 7.86399 51.303 7.92799C51.359 7.99199 51.387 8.05599 51.387 8.11999C51.387 8.18399 51.347 8.24399 51.267 8.29999C51.227 8.33199 51.163 8.34799 51.075 8.34799Z" fill="black"/>
<path d="M55.0459 7.89199C54.6059 7.89199 54.2219 7.81599 53.8939 7.66399C53.5739 7.51199 53.3219 7.31599 53.1379 7.07599C52.9619 6.82799 52.8739 6.56399 52.8739 6.28399C52.8739 6.13999 52.8979 5.99199 52.9459 5.83999C53.0019 5.68799 53.0859 5.54399 53.1979 5.40799C53.3419 5.22399 53.5219 5.02399 53.7379 4.80799C53.9619 4.59199 54.2139 4.38799 54.4939 4.19599C54.7819 4.00399 55.0979 3.84799 55.4419 3.72799C55.7859 3.59999 56.1539 3.53599 56.5459 3.53599C56.8339 3.53599 57.0299 3.55999 57.1339 3.60799C57.2459 3.65599 57.3219 3.71999 57.3619 3.79999C57.4019 3.87199 57.4499 3.94399 57.5059 4.01599C57.6019 3.71199 57.7139 3.39199 57.8419 3.05599C57.9699 2.71999 58.0939 2.40399 58.2139 2.10799C58.3339 1.81199 58.4299 1.57199 58.5019 1.38799C58.5499 1.28399 58.6059 1.15999 58.6699 1.01599C58.7419 0.863992 58.8019 0.731992 58.8499 0.619992C58.9059 0.499992 58.9339 0.439992 58.9339 0.439992C58.9899 0.303992 59.0939 0.235992 59.2459 0.235992C59.3579 0.235992 59.4619 0.275992 59.5579 0.355992C59.6539 0.435992 59.7019 0.531992 59.7019 0.643992C59.7019 0.723992 59.6699 0.807992 59.6059 0.895993H59.5939C59.5939 0.895993 59.5579 0.935992 59.4859 1.01599C59.4139 1.08799 59.3339 1.17999 59.2459 1.29199C59.1659 1.40399 59.1059 1.50799 59.0659 1.60399C58.9699 1.84399 58.8499 2.12799 58.7059 2.45599C58.5699 2.77599 58.4299 3.12799 58.2859 3.51199C58.1419 3.89599 58.0139 4.28799 57.9019 4.68799C57.7979 5.07999 57.7339 5.46799 57.7099 5.85199C57.7019 5.90799 57.6739 5.95199 57.6259 5.98399C57.5779 6.01599 57.5219 6.03199 57.4579 6.03199C57.3699 6.03199 57.2899 6.01199 57.2179 5.97199C57.1459 5.92399 57.1179 5.85999 57.1339 5.77999C57.1739 5.66799 57.1979 5.55599 57.2059 5.44399C57.2219 5.32399 57.2299 5.21199 57.2299 5.10799C57.2299 4.88399 57.1939 4.69199 57.1219 4.53199C57.0579 4.36399 56.9539 4.25999 56.8099 4.21999C56.7459 4.19599 56.6779 4.17999 56.6059 4.17199C56.5339 4.16399 56.4619 4.15999 56.3899 4.15999C56.1339 4.15999 55.8739 4.21999 55.6099 4.33999C55.3459 4.45199 55.0939 4.59999 54.8539 4.78399C54.6219 4.95999 54.4099 5.14399 54.2179 5.33599C54.0259 5.52799 53.8739 5.70399 53.7619 5.86399C53.6499 6.01599 53.5939 6.17999 53.5939 6.35599C53.5939 6.56399 53.6939 6.76399 53.8939 6.95599C54.0939 7.13999 54.4379 7.25199 54.9259 7.29199C54.9659 7.29999 55.0059 7.30399 55.0459 7.30399C55.0859 7.30399 55.1299 7.30399 55.1779 7.30399C55.5059 7.30399 55.8459 7.26399 56.1979 7.18399C56.5579 7.09599 56.8739 6.99599 57.1459 6.88399C57.3619 6.79599 57.5539 6.69199 57.7219 6.57199C57.8899 6.45199 58.0379 6.33599 58.1659 6.22399C58.2299 6.16799 58.2979 6.13999 58.3699 6.13999C58.4419 6.13999 58.5019 6.16799 58.5499 6.22399C58.6059 6.27199 58.6339 6.32799 58.6339 6.39199C58.6339 6.47199 58.5979 6.54399 58.5259 6.60799C58.3979 6.71999 58.2339 6.85599 58.0339 7.01599C57.8419 7.16799 57.6099 7.29999 57.3379 7.41199C57.0179 7.53999 56.6459 7.65199 56.2219 7.74799C55.7979 7.84399 55.4059 7.89199 55.0459 7.89199Z" fill="black"/>
<path d="M62.8503 8.46799C62.7943 8.46799 62.7303 8.46399 62.6583 8.45599C62.5943 8.44799 62.5263 8.43599 62.4543 8.41999C62.3503 8.39599 62.2983 8.31999 62.2983 8.19199C62.2983 8.11999 62.3263 8.05599 62.3823 7.99999C62.4383 7.93599 62.5183 7.91199 62.6223 7.92799C62.7103 7.93599 62.8503 7.91599 63.0423 7.86799C63.2423 7.81999 63.4623 7.75599 63.7023 7.67599C64.0543 7.54799 64.3423 7.41199 64.5663 7.26799C64.7903 7.12399 64.9742 6.95599 65.1182 6.76399C65.2702 6.57199 65.3463 6.38799 65.3463 6.21199C65.3463 6.13199 65.3302 6.05599 65.2982 5.98399C65.2662 5.90399 65.2062 5.82799 65.1182 5.75599C64.9822 5.63599 64.8183 5.52399 64.6263 5.41999C64.4343 5.31599 64.2463 5.20799 64.0623 5.09599C63.8783 4.97599 63.7223 4.84399 63.5943 4.69999C63.4743 4.54799 63.4143 4.36399 63.4143 4.14799C63.4143 3.95599 63.4823 3.79199 63.6183 3.65599C63.7543 3.51199 63.9103 3.39599 64.0863 3.30799C64.2703 3.21199 64.4263 3.14399 64.5543 3.10399C64.6823 3.06399 64.8103 3.03599 64.9383 3.01999C65.0663 2.99599 65.1943 2.98399 65.3223 2.98399C65.4743 2.98399 65.6182 3.00399 65.7542 3.04399C65.8982 3.07599 66.0342 3.13599 66.1622 3.22399C66.2342 3.27199 66.2863 3.32799 66.3183 3.39199C66.3503 3.45599 66.3662 3.51999 66.3662 3.58399C66.3662 3.67199 66.3382 3.75199 66.2822 3.82399C66.2342 3.88799 66.1662 3.91999 66.0782 3.91999C66.0142 3.91999 65.9302 3.88799 65.8262 3.82399H65.8382C65.6622 3.69599 65.4582 3.63199 65.2262 3.63199C65.0982 3.63199 64.9823 3.64799 64.8783 3.67999C64.7103 3.71999 64.5463 3.77199 64.3863 3.83599C64.2263 3.89999 64.1263 3.99999 64.0863 4.13599C64.0623 4.23999 64.1223 4.35599 64.2663 4.48399C64.4183 4.60399 64.6063 4.72799 64.8303 4.85599C65.0543 4.97599 65.2622 5.09599 65.4542 5.21599C65.6382 5.31999 65.7862 5.45999 65.8982 5.63599C66.0102 5.81199 66.0663 5.99999 66.0663 6.19999C66.0663 6.44799 65.9743 6.68799 65.7903 6.91999C65.4943 7.27999 65.1862 7.55999 64.8662 7.75999C64.5542 7.95999 64.2023 8.12399 63.8103 8.25199C63.5943 8.32399 63.4143 8.37599 63.2703 8.40799C63.1263 8.44799 62.9863 8.46799 62.8503 8.46799Z" fill="black"/>
<path d="M68.7713 8.65999C68.7393 8.65999 68.7113 8.65599 68.6873 8.64799C68.6633 8.64799 68.6353 8.64399 68.6033 8.63599C68.3793 8.57999 68.1593 8.49199 67.9433 8.37199C67.7353 8.25199 67.5633 8.07599 67.4273 7.84399C67.2913 7.60399 67.2233 7.29199 67.2233 6.90799C67.2233 6.75599 67.2353 6.59199 67.2593 6.41599C67.2993 6.13599 67.3713 5.80799 67.4753 5.43199C67.5873 5.04799 67.7193 4.64799 67.8713 4.23199H67.8593C67.8113 4.23199 67.7673 4.23999 67.7273 4.25599C67.6873 4.27199 67.6473 4.27999 67.6073 4.27999C67.4793 4.27999 67.4153 4.20399 67.4153 4.05199C67.4153 3.96399 67.4513 3.87999 67.5233 3.79999C67.5953 3.71999 67.6633 3.67999 67.7273 3.67999L68.0873 3.66799C68.2873 3.14799 68.4873 2.65599 68.6873 2.19199C68.8953 1.71999 69.0713 1.34799 69.2153 1.07599C69.2553 1.00399 69.3113 0.951992 69.3833 0.919992C69.4633 0.879992 69.5433 0.859992 69.6233 0.859992C69.7033 0.859992 69.7713 0.879992 69.8273 0.919992C69.8913 0.951992 69.9233 0.999993 69.9233 1.06399C69.9233 1.07999 69.9153 1.11199 69.8993 1.15999L69.1553 2.77999C69.0833 2.93199 69.0153 3.07599 68.9513 3.21199C68.8953 3.34799 68.8353 3.48399 68.7713 3.61999C68.9313 3.61999 69.0953 3.62399 69.2633 3.63199C69.4393 3.63999 69.6353 3.65599 69.8513 3.67999C69.8913 3.68799 69.9313 3.71599 69.9713 3.76399C70.0113 3.81199 70.0313 3.86399 70.0313 3.91999C70.0313 3.95999 70.0153 3.99999 69.9833 4.03999C69.9593 4.07199 69.9033 4.09199 69.8153 4.09999C69.6233 4.12399 69.4113 4.13999 69.1793 4.14799C68.9473 4.14799 68.7393 4.15199 68.5553 4.15999C68.3713 4.64799 68.2233 5.09199 68.1113 5.49199C68.0073 5.89199 67.9233 6.26799 67.8593 6.61999C67.8513 6.67599 67.8433 6.73199 67.8353 6.78799C67.8353 6.84399 67.8353 6.89599 67.8353 6.94399C67.8353 7.30399 67.9313 7.57199 68.1233 7.74799C68.3153 7.92399 68.5313 8.04799 68.7713 8.11999C68.9153 8.16799 69.0153 8.21599 69.0713 8.26399C69.1353 8.31999 69.1673 8.37199 69.1673 8.41999C69.1673 8.48399 69.1273 8.53999 69.0473 8.58799C68.9753 8.63599 68.8833 8.65999 68.7713 8.65999Z" fill="black"/>
<path d="M71.6507 7.67599C71.5147 7.67599 71.3748 7.65599 71.2308 7.61599C71.0868 7.57599 70.9428 7.51599 70.7988 7.43599C70.5348 7.28399 70.3507 7.08799 70.2467 6.84799C70.1427 6.60799 70.0908 6.35199 70.0908 6.07999C70.0908 5.95199 70.0988 5.82799 70.1148 5.70799C70.1308 5.57999 70.1548 5.45199 70.1868 5.32399C70.2508 5.05999 70.3628 4.81999 70.5228 4.60399C70.6828 4.37999 70.8628 4.19199 71.0628 4.03999C71.2628 3.88799 71.4547 3.79199 71.6387 3.75199C71.6627 3.74399 71.6947 3.73999 71.7347 3.73999C71.8467 3.73999 71.9387 3.77199 72.0107 3.83599C72.0827 3.89999 72.1188 3.97199 72.1188 4.05199C72.1188 4.14799 72.0628 4.22399 71.9508 4.27999V4.29199C71.7668 4.37199 71.6027 4.45599 71.4587 4.54399C71.3227 4.62399 71.2027 4.73599 71.0987 4.87999C70.9947 5.02399 70.8988 5.23199 70.8108 5.50399C70.7628 5.64799 70.7387 5.83999 70.7387 6.07999C70.7387 6.26399 70.7628 6.43999 70.8108 6.60799C70.8668 6.76799 70.9588 6.87599 71.0868 6.93199C71.2228 6.98799 71.3668 7.01599 71.5188 7.01599C71.8468 7.01599 72.1708 6.90399 72.4908 6.67999C72.8108 6.44799 73.0948 6.20799 73.3428 5.95999C73.5668 5.73599 73.7748 5.48399 73.9668 5.20399C74.1668 4.91599 74.3347 4.65199 74.4707 4.41199C74.6067 4.16399 74.6867 3.98399 74.7107 3.87199C74.7427 3.73599 74.8307 3.66799 74.9747 3.66799C75.0627 3.66799 75.1428 3.70399 75.2148 3.77599C75.2868 3.83999 75.3067 3.92799 75.2747 4.03999C75.2267 4.20799 75.1307 4.42799 74.9867 4.69999C74.8507 4.97199 74.6827 5.25599 74.4827 5.55199C74.2908 5.83999 74.0868 6.10399 73.8708 6.34399C73.6948 6.54399 73.4908 6.74799 73.2588 6.95599C73.0268 7.15599 72.7747 7.32799 72.5027 7.47199C72.2307 7.60799 71.9467 7.67599 71.6507 7.67599Z" fill="black"/>
<path d="M75.6693 8.76799C75.5893 8.76799 75.5133 8.71599 75.4413 8.61199C75.3773 8.50799 75.3453 8.32399 75.3453 8.05999C75.3453 7.73999 75.3933 7.35199 75.4893 6.89599C75.5933 6.43999 75.7253 5.95199 75.8853 5.43199C76.0533 4.91199 76.2293 4.40399 76.4133 3.90799H76.4013C76.3293 3.90799 76.2852 3.85599 76.2692 3.75199C76.2372 3.64799 76.2612 3.54799 76.3412 3.45199C76.4212 3.35599 76.4973 3.30799 76.5693 3.30799H76.6413C76.8253 2.85199 76.9972 2.44799 77.1572 2.09599C77.3252 1.73599 77.4612 1.47199 77.5652 1.30399C77.7252 1.04799 77.9173 0.855992 78.1413 0.727993C78.3653 0.591992 78.5892 0.523992 78.8132 0.523992C78.9812 0.523992 79.1413 0.563992 79.2933 0.643992C79.4453 0.723992 79.5733 0.851992 79.6773 1.02799C79.7493 1.14799 79.7852 1.26399 79.7852 1.37599C79.7852 1.47999 79.7572 1.57199 79.7012 1.65199C79.6532 1.72399 79.5972 1.75999 79.5332 1.75999C79.4292 1.75999 79.3493 1.68399 79.2933 1.53199C79.1813 1.26799 79.0252 1.13599 78.8252 1.13599C78.5292 1.13599 78.2213 1.37999 77.9013 1.86799C77.8533 1.93199 77.7893 2.04799 77.7093 2.21599C77.6293 2.37599 77.5453 2.55199 77.4573 2.74399C77.3693 2.93599 77.2892 3.11199 77.2172 3.27199C77.3052 3.26399 77.4292 3.25999 77.5892 3.25999C77.7492 3.25999 77.9252 3.25999 78.1172 3.25999H79.2933C79.4293 2.71599 79.5892 2.29599 79.7732 1.99999C79.9652 1.70399 80.1132 1.47199 80.2172 1.30399C80.3772 1.04799 80.5693 0.855992 80.7933 0.727993C81.0173 0.591992 81.2412 0.523992 81.4652 0.523992C81.6332 0.523992 81.7933 0.563992 81.9453 0.643992C82.0973 0.723992 82.2252 0.851992 82.3292 1.02799C82.4652 1.23599 82.5532 1.41999 82.5932 1.57999C82.6412 1.73199 82.6732 1.94399 82.6892 2.21599V2.22799C82.6892 2.29199 82.6652 2.33999 82.6172 2.37199C82.5692 2.40399 82.5173 2.41999 82.4613 2.41999C82.3493 2.41999 82.2772 2.36799 82.2452 2.26399C82.2212 2.15199 82.1573 1.99599 82.0533 1.79599C81.8453 1.37999 81.6212 1.17199 81.3812 1.17199C81.1332 1.17199 80.8573 1.40399 80.5533 1.86799C80.5133 1.93199 80.4493 2.04799 80.3613 2.21599C80.2813 2.37599 80.1973 2.55199 80.1093 2.74399C80.0213 2.93599 79.9412 3.11199 79.8692 3.27199H80.3012C80.4372 3.27199 80.5813 3.27599 80.7333 3.28399C80.8933 3.28399 81.0613 3.29599 81.2373 3.31999C81.2773 3.32799 81.3173 3.35599 81.3573 3.40399C81.3973 3.45199 81.4173 3.50399 81.4173 3.55999C81.4173 3.59199 81.4012 3.62799 81.3692 3.66799C81.3452 3.69999 81.2932 3.71999 81.2132 3.72799C80.9412 3.75999 80.6492 3.77999 80.3372 3.78799C80.0332 3.78799 79.8013 3.79599 79.6413 3.81199C79.5213 4.12399 79.3972 4.47599 79.2692 4.86799C79.1412 5.25199 79.0212 5.64399 78.9092 6.04399C78.7972 6.44399 78.7052 6.81999 78.6332 7.17199C78.5692 7.51599 78.5412 7.79999 78.5492 8.02399C78.5492 8.10399 78.5693 8.17599 78.6093 8.23999C78.6493 8.31199 78.6693 8.38399 78.6693 8.45599C78.6693 8.48799 78.6572 8.52399 78.6332 8.56399C78.6092 8.61199 78.5653 8.65999 78.5013 8.70799C78.4373 8.74799 78.3773 8.76799 78.3213 8.76799C78.2413 8.76799 78.1652 8.71599 78.0932 8.61199C78.0292 8.50799 77.9973 8.32399 77.9973 8.05999C77.9973 7.74799 78.0453 7.36399 78.1413 6.90799C78.2453 6.44399 78.3812 5.94399 78.5492 5.40799C78.7172 4.86399 78.9012 4.31199 79.1012 3.75199C78.8292 3.75999 78.5453 3.76799 78.2493 3.77599C77.9533 3.78399 77.6893 3.79199 77.4573 3.79999C77.2333 3.79999 77.0773 3.80399 76.9893 3.81199C76.8693 4.12399 76.7452 4.47599 76.6172 4.86799C76.4892 5.25199 76.3692 5.64399 76.2572 6.04399C76.1452 6.44399 76.0532 6.81999 75.9812 7.17199C75.9172 7.51599 75.8892 7.79999 75.8972 8.02399C75.8972 8.10399 75.9173 8.17599 75.9573 8.23999C75.9973 8.31199 76.0173 8.38399 76.0173 8.45599C76.0173 8.48799 76.0052 8.52399 75.9812 8.56399C75.9572 8.61199 75.9133 8.65999 75.8493 8.70799C75.7853 8.74799 75.7253 8.76799 75.6693 8.76799Z" fill="black"/>
<path d="M89.153 7.61599C88.841 7.59999 88.589 7.51999 88.397 7.37599C88.205 7.23199 88.049 7.04799 87.929 6.82399C87.817 6.59199 87.717 6.34399 87.629 6.07999C87.549 5.81599 87.461 5.55999 87.365 5.31199C87.277 5.39199 87.157 5.50399 87.005 5.64799C86.861 5.78399 86.705 5.93599 86.537 6.10399C86.369 6.27199 86.209 6.43199 86.057 6.58399C85.905 6.73599 85.781 6.86399 85.685 6.96799C85.533 7.13599 85.361 7.27599 85.169 7.38799C84.985 7.49999 84.821 7.55599 84.677 7.55599C84.565 7.55599 84.469 7.51599 84.389 7.43599C84.317 7.35599 84.281 7.22399 84.281 7.03999C84.281 6.99999 84.281 6.95999 84.281 6.91999C84.289 6.87999 84.297 6.83599 84.305 6.78799C84.377 6.34799 84.445 5.98799 84.509 5.70799C84.573 5.42799 84.645 5.18399 84.725 4.97599C84.813 4.75999 84.913 4.53999 85.025 4.31599C85.097 4.18799 85.197 4.12399 85.325 4.12399C85.397 4.12399 85.461 4.15199 85.517 4.20799C85.573 4.25599 85.601 4.33199 85.601 4.43599C85.601 4.49199 85.577 4.59999 85.529 4.75999C85.481 4.91999 85.425 5.05199 85.361 5.15599C85.281 5.28399 85.181 5.50399 85.061 5.81599C84.949 6.12799 84.885 6.47199 84.869 6.84799C85.117 6.69599 85.373 6.49199 85.637 6.23599C85.901 5.97199 86.169 5.71199 86.441 5.45599C86.721 5.19999 86.997 5.01199 87.269 4.89199C87.341 4.85199 87.413 4.81999 87.485 4.79599C87.557 4.76399 87.621 4.74799 87.677 4.74799C87.749 4.74799 87.805 4.77599 87.845 4.83199C87.893 4.88799 87.921 4.98399 87.929 5.11999C87.937 5.27199 87.965 5.45999 88.013 5.68399C88.069 5.89999 88.145 6.11599 88.241 6.33199C88.345 6.53999 88.469 6.71599 88.613 6.85999C88.765 7.00399 88.945 7.07599 89.153 7.07599C89.313 7.07599 89.469 7.01999 89.621 6.90799C89.773 6.79599 89.909 6.65599 90.029 6.48799C90.149 6.31199 90.233 6.13599 90.281 5.95999C90.321 5.81599 90.345 5.69199 90.353 5.58799C90.369 5.48399 90.377 5.39999 90.377 5.33599C90.377 5.19999 90.361 5.10399 90.329 5.04799C90.305 4.99199 90.293 4.92799 90.293 4.85599C90.293 4.73599 90.329 4.64399 90.401 4.57999C90.473 4.51599 90.549 4.48399 90.629 4.48399C90.741 4.48399 90.845 4.53999 90.941 4.65199C91.045 4.75599 91.097 4.92799 91.097 5.16799C91.097 5.36799 91.057 5.59199 90.977 5.83999C90.873 6.15999 90.717 6.45999 90.509 6.73999C90.301 7.01199 90.077 7.22799 89.837 7.38799C89.597 7.54799 89.369 7.62399 89.153 7.61599Z" fill="black"/>
<path d="M94.0979 3.40399C94.0579 3.45199 94.0059 3.45599 93.9419 3.41599C93.8859 3.37599 93.8379 3.31599 93.7979 3.23599C93.7579 3.14799 93.7459 3.06399 93.7619 2.98399H93.7739C93.8059 2.86399 93.8459 2.76399 93.8939 2.68399C93.9419 2.60399 94.0059 2.52399 94.0859 2.44399C94.1339 2.39599 94.1979 2.37199 94.2779 2.37199C94.3499 2.37199 94.4139 2.39599 94.4699 2.44399C94.5339 2.48399 94.5659 2.53599 94.5659 2.59999C94.5659 2.63199 94.5539 2.66799 94.5299 2.70799C94.5059 2.73999 94.4579 2.82399 94.3859 2.95999C94.3219 3.09599 94.2259 3.24399 94.0979 3.40399ZM92.5859 7.83199C92.4579 7.83199 92.3299 7.78399 92.2019 7.68799C92.0819 7.58399 92.0339 7.41999 92.0579 7.19599C92.0899 6.88399 92.1339 6.61999 92.1899 6.40399C92.2459 6.18799 92.3099 5.99199 92.3819 5.81599C92.4539 5.63199 92.5299 5.43599 92.6099 5.22799C92.6979 5.01999 92.7859 4.76799 92.8739 4.47199C92.9219 4.33599 93.0219 4.26799 93.1739 4.26799C93.2779 4.26799 93.3699 4.29999 93.4499 4.36399C93.5299 4.42799 93.5539 4.51599 93.5219 4.62799C93.4179 4.96399 93.3139 5.23599 93.2099 5.44399C93.1059 5.65199 93.0099 5.83599 92.9219 5.99599C92.8339 6.14799 92.7579 6.31599 92.6939 6.49999C92.6379 6.67599 92.6019 6.90399 92.5859 7.18399C92.5859 7.20799 92.6379 7.25999 92.7419 7.33999C92.8459 7.41199 92.8979 7.49599 92.8979 7.59199C92.8979 7.66399 92.8579 7.72799 92.7779 7.78399C92.7379 7.81599 92.6739 7.83199 92.5859 7.83199Z" fill="black"/>
<path d="M95.8885 8.65999C95.8565 8.65999 95.8285 8.65599 95.8045 8.64799C95.7805 8.64799 95.7525 8.64399 95.7205 8.63599C95.4965 8.57999 95.2765 8.49199 95.0605 8.37199C94.8525 8.25199 94.6805 8.07599 94.5445 7.84399C94.4085 7.60399 94.3405 7.29199 94.3405 6.90799C94.3405 6.75599 94.3525 6.59199 94.3765 6.41599C94.4165 6.13599 94.4885 5.80799 94.5925 5.43199C94.7045 5.04799 94.8365 4.64799 94.9885 4.23199H94.9765C94.9285 4.23199 94.8845 4.23999 94.8445 4.25599C94.8045 4.27199 94.7645 4.27999 94.7245 4.27999C94.5965 4.27999 94.5325 4.20399 94.5325 4.05199C94.5325 3.96399 94.5685 3.87999 94.6405 3.79999C94.7125 3.71999 94.7805 3.67999 94.8445 3.67999L95.2045 3.66799C95.4045 3.14799 95.6045 2.65599 95.8045 2.19199C96.0125 1.71999 96.1885 1.34799 96.3325 1.07599C96.3725 1.00399 96.4285 0.951992 96.5005 0.919992C96.5805 0.879992 96.6605 0.859992 96.7405 0.859992C96.8205 0.859992 96.8885 0.879992 96.9445 0.919992C97.0085 0.951992 97.0405 0.999993 97.0405 1.06399C97.0405 1.07999 97.0325 1.11199 97.0165 1.15999L96.2725 2.77999C96.2005 2.93199 96.1325 3.07599 96.0685 3.21199C96.0125 3.34799 95.9525 3.48399 95.8885 3.61999C96.0485 3.61999 96.2125 3.62399 96.3805 3.63199C96.5565 3.63999 96.7525 3.65599 96.9685 3.67999C97.0085 3.68799 97.0485 3.71599 97.0885 3.76399C97.1285 3.81199 97.1485 3.86399 97.1485 3.91999C97.1485 3.95999 97.1325 3.99999 97.1005 4.03999C97.0765 4.07199 97.0205 4.09199 96.9325 4.09999C96.7405 4.12399 96.5285 4.13999 96.2965 4.14799C96.0645 4.14799 95.8565 4.15199 95.6725 4.15999C95.4885 4.64799 95.3405 5.09199 95.2285 5.49199C95.1245 5.89199 95.0405 6.26799 94.9765 6.61999C94.9685 6.67599 94.9605 6.73199 94.9525 6.78799C94.9525 6.84399 94.9525 6.89599 94.9525 6.94399C94.9525 7.30399 95.0485 7.57199 95.2405 7.74799C95.4325 7.92399 95.6485 8.04799 95.8885 8.11999C96.0325 8.16799 96.1325 8.21599 96.1885 8.26399C96.2525 8.31999 96.2845 8.37199 96.2845 8.41999C96.2845 8.48399 96.2445 8.53999 96.1645 8.58799C96.0925 8.63599 96.0005 8.65999 95.8885 8.65999Z" fill="black"/>
<path d="M100.544 8.28799C100.368 8.28799 100.244 8.21199 100.172 8.05999C100.1 7.90799 100.064 7.72799 100.064 7.51999C100.064 7.26399 100.104 6.98799 100.184 6.69199C100.264 6.39599 100.344 6.15599 100.424 5.97199C100.536 5.70799 100.624 5.47599 100.688 5.27599C100.752 5.07599 100.784 4.91599 100.784 4.79599C100.784 4.65199 100.74 4.57999 100.652 4.57999C100.596 4.57199 100.48 4.60799 100.304 4.68799C100.128 4.76799 99.9439 4.87599 99.7519 5.01199C99.6319 5.09199 99.4719 5.21199 99.2719 5.37199C99.0719 5.52399 98.8639 5.69199 98.6479 5.87599C98.4319 6.05999 98.2399 6.23999 98.0719 6.41599C97.8479 6.64799 97.6959 6.86399 97.6159 7.06399C97.5679 7.18399 97.4879 7.24399 97.3759 7.24399C97.3039 7.24399 97.2439 7.21199 97.1959 7.14799C97.1479 7.07599 97.1319 6.96799 97.1479 6.82399C97.1879 6.55999 97.2639 6.23599 97.3759 5.85199C97.4959 5.46799 97.6319 5.05599 97.7839 4.61599C97.9439 4.16799 98.1119 3.72399 98.2879 3.28399C98.4639 2.83599 98.6359 2.41999 98.8039 2.03599C98.9799 1.65199 99.1359 1.33199 99.2719 1.07599C99.3439 0.947992 99.4439 0.883992 99.5719 0.883992C99.6439 0.883992 99.7079 0.911992 99.7639 0.967992C99.8199 1.01599 99.8479 1.08799 99.8479 1.18399C99.8479 1.21599 99.8359 1.28399 99.8119 1.38799C99.7959 1.49199 99.7679 1.59999 99.7279 1.71199C99.6959 1.82399 99.6559 1.91599 99.6079 1.98799C99.5279 2.11599 99.4319 2.24799 99.3199 2.38399C99.2079 2.51999 99.1079 2.67999 99.0199 2.86399C98.8279 3.27999 98.6719 3.63599 98.5519 3.93199C98.4319 4.21999 98.3359 4.47599 98.2639 4.69999C98.1999 4.92399 98.1439 5.12799 98.0959 5.31199C98.0479 5.49599 97.9959 5.68799 97.9399 5.88799C98.0039 5.78399 98.0639 5.69999 98.1199 5.63599C98.1759 5.57199 98.2319 5.51199 98.2879 5.45599C98.4479 5.29599 98.6399 5.13199 98.8639 4.96399C99.0879 4.79599 99.3199 4.63599 99.5599 4.48399C99.8079 4.33199 100.04 4.21199 100.256 4.12399C100.48 4.02799 100.66 3.97999 100.796 3.97999C100.948 3.97999 101.088 4.03199 101.216 4.13599C101.344 4.23199 101.408 4.41999 101.408 4.69999C101.408 4.85999 101.38 5.05599 101.324 5.28799C101.276 5.51199 101.184 5.77599 101.048 6.07999C100.936 6.35199 100.836 6.64399 100.748 6.95599C100.668 7.25999 100.616 7.50399 100.592 7.68799C100.672 7.80799 100.712 7.93999 100.712 8.08399C100.712 8.21999 100.656 8.28799 100.544 8.28799Z" fill="black"/>
<path d="M106.731 8.31199C106.419 8.31199 106.163 8.23999 105.963 8.09599C105.763 7.95199 105.611 7.77199 105.507 7.55599C105.411 7.33199 105.363 7.10399 105.363 6.87199C105.363 6.60799 105.423 6.35199 105.543 6.10399C105.663 5.84799 105.811 5.60799 105.987 5.38399C106.163 5.15999 106.335 4.95999 106.503 4.78399C106.927 4.34399 107.323 4.01999 107.691 3.81199C108.067 3.60399 108.367 3.49999 108.591 3.49999C108.815 3.49999 108.983 3.53599 109.095 3.60799C109.207 3.67999 109.283 3.76799 109.323 3.87199C109.371 3.97599 109.399 4.07199 109.407 4.15999C109.423 4.30399 109.403 4.42399 109.347 4.51999C109.291 4.60799 109.215 4.65199 109.119 4.65199C109.031 4.65199 108.943 4.61199 108.855 4.53199C108.767 4.45199 108.691 4.36399 108.627 4.26799C108.419 4.31599 108.239 4.36399 108.087 4.41199C107.935 4.45199 107.787 4.51599 107.643 4.60399C107.507 4.68399 107.347 4.80399 107.163 4.96399C106.835 5.25999 106.551 5.57199 106.311 5.89999C106.079 6.22799 105.963 6.57999 105.963 6.95599C105.963 7.46799 106.227 7.72399 106.755 7.72399C107.099 7.72399 107.455 7.63599 107.823 7.45999C108.191 7.27599 108.511 7.03999 108.783 6.75199C108.847 6.68799 108.919 6.65599 108.999 6.65599C109.063 6.65599 109.115 6.67599 109.155 6.71599C109.203 6.75599 109.227 6.80799 109.227 6.87199C109.227 6.94399 109.195 7.00799 109.131 7.06399C108.747 7.43199 108.363 7.73199 107.979 7.96399C107.603 8.19599 107.187 8.31199 106.731 8.31199Z" fill="black"/>
<path d="M111.124 7.77199C111.076 7.77199 111.028 7.77199 110.98 7.77199C110.932 7.76399 110.884 7.75599 110.836 7.74799C110.508 7.70799 110.252 7.55199 110.068 7.27999C109.892 6.99999 109.804 6.68799 109.804 6.34399C109.804 6.11999 109.848 5.88399 109.936 5.63599C110.032 5.37999 110.18 5.14799 110.38 4.93999C110.58 4.72399 110.812 4.55199 111.076 4.42399C111.34 4.29599 111.608 4.23199 111.88 4.23199C112.016 4.23199 112.144 4.24799 112.264 4.27999C112.392 4.31199 112.456 4.37599 112.456 4.47199C112.456 4.53599 112.42 4.59999 112.348 4.66399C112.284 4.71999 112.196 4.73599 112.084 4.71199C112.052 4.70399 112 4.69999 111.928 4.69999C111.736 4.69999 111.54 4.75199 111.34 4.85599C111.14 4.95999 110.96 5.09999 110.8 5.27599C110.64 5.44399 110.524 5.63199 110.452 5.83999C110.396 5.99999 110.368 6.15999 110.368 6.31999C110.368 6.56799 110.424 6.77999 110.536 6.95599C110.656 7.13199 110.792 7.21999 110.944 7.21999C110.984 7.22799 111.02 7.23199 111.052 7.23199C111.092 7.23199 111.128 7.23199 111.16 7.23199C111.512 7.23199 111.848 7.13599 112.168 6.94399C112.496 6.74399 112.748 6.52799 112.924 6.29599C113.012 6.15999 113.072 6.03999 113.104 5.93599C113.136 5.82399 113.152 5.73199 113.152 5.65999C113.152 5.49999 113.104 5.39199 113.008 5.33599C112.912 5.27999 112.824 5.25599 112.744 5.26399C112.616 5.27999 112.492 5.29999 112.372 5.32399C112.252 5.33999 112.148 5.36799 112.06 5.40799C112.012 5.42399 111.976 5.43199 111.952 5.43199C111.872 5.43199 111.804 5.39999 111.748 5.33599C111.7 5.27199 111.676 5.20399 111.676 5.13199C111.676 5.00399 111.736 4.91999 111.856 4.87999C111.968 4.83999 112.1 4.80399 112.252 4.77199C112.404 4.73999 112.56 4.71599 112.72 4.69999C112.752 4.69199 112.78 4.68799 112.804 4.68799C112.828 4.68799 112.856 4.68799 112.888 4.68799C113.176 4.68799 113.4 4.77599 113.56 4.95199C113.72 5.11999 113.8 5.32799 113.8 5.57599C113.8 5.72799 113.764 5.89199 113.692 6.06799C113.62 6.24399 113.504 6.41199 113.344 6.57199C113.2 6.75599 113.016 6.93999 112.792 7.12399C112.568 7.30799 112.316 7.46399 112.036 7.59199C111.756 7.71199 111.452 7.77199 111.124 7.77199Z" fill="black"/>
<path d="M121.347 8.16799C121.147 8.16799 121.007 8.09199 120.927 7.93999C120.855 7.78799 120.819 7.60399 120.819 7.38799C120.819 7.10799 120.863 6.81599 120.951 6.51199C121.039 6.19999 121.127 5.94399 121.215 5.74399C121.415 5.29599 121.515 4.99999 121.515 4.85599C121.515 4.74399 121.463 4.68799 121.359 4.68799C121.335 4.68799 121.307 4.68799 121.275 4.68799C121.251 4.68799 121.223 4.69599 121.191 4.71199C120.967 4.77599 120.707 4.90399 120.411 5.09599C120.123 5.28799 119.835 5.50399 119.547 5.74399C119.259 5.98399 119.011 6.21999 118.803 6.45199C118.691 6.57999 118.587 6.72799 118.491 6.89599C118.395 7.06399 118.319 7.17999 118.263 7.24399C118.175 7.34799 118.071 7.39999 117.951 7.39999C117.871 7.39999 117.799 7.37199 117.735 7.31599C117.679 7.25199 117.663 7.15599 117.687 7.02799C117.751 6.65199 117.795 6.41599 117.819 6.31999C117.843 6.21599 117.859 6.16399 117.867 6.16399V6.04399C117.867 5.85199 117.855 5.67199 117.831 5.50399C117.815 5.32799 117.775 5.19199 117.711 5.09599C117.655 4.99999 117.567 4.97199 117.447 5.01199C117.231 5.07599 116.983 5.20399 116.703 5.39599C116.423 5.58799 116.147 5.80399 115.875 6.04399C115.603 6.28399 115.371 6.50799 115.179 6.71599C114.979 6.93999 114.851 7.12399 114.795 7.26799C114.747 7.41199 114.723 7.48399 114.723 7.48399C114.651 7.56399 114.583 7.60399 114.519 7.60399C114.367 7.60399 114.291 7.46799 114.291 7.19599C114.291 6.95599 114.335 6.68399 114.423 6.37999C114.511 6.07599 114.619 5.77599 114.747 5.47999C114.883 5.17599 115.007 4.91199 115.119 4.68799C115.191 4.55999 115.291 4.49599 115.419 4.49599C115.507 4.49599 115.579 4.52799 115.635 4.59199C115.699 4.65599 115.723 4.74399 115.707 4.85599C115.707 4.90399 115.659 4.99999 115.563 5.14399C115.467 5.27999 115.367 5.44799 115.263 5.64799C115.167 5.83999 115.107 6.04799 115.083 6.27199C115.171 6.13599 115.247 6.03999 115.311 5.98399C115.383 5.91999 115.471 5.83599 115.575 5.73199C115.799 5.50799 115.991 5.33199 116.151 5.20399C116.319 5.07599 116.495 4.96399 116.679 4.86799C116.863 4.77199 117.091 4.66399 117.363 4.54399C117.435 4.50399 117.511 4.47199 117.591 4.44799C117.671 4.42399 117.751 4.41199 117.831 4.41199C117.959 4.41199 118.075 4.45999 118.179 4.55599C118.283 4.64399 118.367 4.80399 118.431 5.03599C118.503 5.26799 118.535 5.60399 118.527 6.04399C118.639 5.95599 118.735 5.86799 118.815 5.77999C118.903 5.68399 118.999 5.58399 119.103 5.47999C119.335 5.24799 119.539 5.05999 119.715 4.91599C119.899 4.76399 120.091 4.63199 120.291 4.51999C120.499 4.39999 120.747 4.27599 121.035 4.14799C121.123 4.10799 121.227 4.07199 121.347 4.03999C121.467 3.99999 121.583 3.97999 121.695 3.97999C121.831 3.97999 121.951 4.01999 122.055 4.09999C122.159 4.17999 122.211 4.32799 122.211 4.54399C122.211 4.68799 122.183 4.86799 122.127 5.08399C122.079 5.29199 121.987 5.54799 121.851 5.85199C121.731 6.13199 121.627 6.43199 121.539 6.75199C121.459 7.07199 121.403 7.33599 121.371 7.54399C121.459 7.67199 121.503 7.81199 121.503 7.96399C121.503 8.01999 121.491 8.06799 121.467 8.10799C121.443 8.14799 121.403 8.16799 121.347 8.16799Z" fill="black"/>
<path d="M122.501 11.084C122.373 11.084 122.249 11.032 122.129 10.928C122.001 10.824 121.949 10.66 121.973 10.436C121.989 10.228 122.045 9.94799 122.141 9.59599C122.237 9.25199 122.357 8.86799 122.501 8.44399C122.645 8.01999 122.805 7.58399 122.981 7.13599C123.157 6.67999 123.333 6.23999 123.509 5.81599C123.685 5.38399 123.853 4.99599 124.013 4.65199C124.173 4.29999 124.309 4.01599 124.421 3.79999C124.493 3.67199 124.593 3.60799 124.721 3.60799C124.801 3.60799 124.869 3.63599 124.925 3.69199C124.981 3.73999 125.009 3.81599 125.009 3.91999C125.009 3.98399 124.985 4.08799 124.937 4.23199C124.889 4.36799 124.829 4.48399 124.757 4.57999C124.645 4.72399 124.525 4.90399 124.397 5.11999C124.269 5.32799 124.149 5.54799 124.037 5.77999C124.453 5.19599 124.889 4.73999 125.345 4.41199C125.801 4.08399 126.297 3.84399 126.833 3.69199C126.913 3.66799 126.989 3.65199 127.061 3.64399C127.133 3.63599 127.201 3.63199 127.265 3.63199C127.593 3.63199 127.825 3.74399 127.961 3.96799C128.105 4.19199 128.177 4.43199 128.177 4.68799C128.177 4.96799 128.117 5.19999 127.997 5.38399C127.781 5.82399 127.529 6.18799 127.241 6.47599C126.953 6.75599 126.641 6.98799 126.305 7.17199C125.977 7.34799 125.633 7.51199 125.273 7.66399C125.097 7.74399 124.941 7.79999 124.805 7.83199C124.677 7.85599 124.565 7.86799 124.469 7.86799C124.325 7.86799 124.225 7.83599 124.169 7.77199C124.113 7.70799 124.085 7.63599 124.085 7.55599C124.085 7.44399 124.117 7.33999 124.181 7.24399C124.245 7.14799 124.305 7.10799 124.361 7.12399C124.417 7.13199 124.485 7.14399 124.565 7.15999C124.645 7.17599 124.729 7.18399 124.817 7.18399C125.025 7.18399 125.201 7.14799 125.345 7.07599C125.577 6.95599 125.817 6.81999 126.065 6.66799C126.321 6.51599 126.569 6.31999 126.809 6.07999C127.057 5.83199 127.273 5.51599 127.457 5.13199C127.505 4.99599 127.529 4.86399 127.529 4.73599C127.529 4.59999 127.493 4.48399 127.421 4.38799C127.357 4.29199 127.245 4.24399 127.085 4.24399C126.821 4.24399 126.485 4.36399 126.077 4.60399C125.669 4.83599 125.241 5.16399 124.793 5.58799C124.345 6.01199 123.921 6.50399 123.521 7.06399C123.345 7.51199 123.181 7.95199 123.029 8.38399C122.885 8.81599 122.769 9.19999 122.681 9.53599C122.593 9.87999 122.541 10.132 122.525 10.292C122.517 10.38 122.565 10.472 122.669 10.568C122.773 10.664 122.825 10.76 122.825 10.856C122.825 10.92 122.785 10.98 122.705 11.036C122.665 11.068 122.597 11.084 122.501 11.084Z" fill="black"/>
<path d="M130.198 7.67599C130.062 7.67599 129.922 7.65599 129.778 7.61599C129.634 7.57599 129.49 7.51599 129.346 7.43599C129.082 7.28399 128.898 7.08799 128.794 6.84799C128.69 6.60799 128.638 6.35199 128.638 6.07999C128.638 5.95199 128.646 5.82799 128.662 5.70799C128.678 5.57999 128.702 5.45199 128.734 5.32399C128.798 5.05999 128.91 4.81999 129.07 4.60399C129.23 4.37999 129.41 4.19199 129.61 4.03999C129.81 3.88799 130.002 3.79199 130.186 3.75199C130.21 3.74399 130.242 3.73999 130.282 3.73999C130.394 3.73999 130.486 3.77199 130.558 3.83599C130.63 3.89999 130.666 3.97199 130.666 4.05199C130.666 4.14799 130.61 4.22399 130.498 4.27999V4.29199C130.314 4.37199 130.15 4.45599 130.006 4.54399C129.87 4.62399 129.75 4.73599 129.646 4.87999C129.542 5.02399 129.446 5.23199 129.358 5.50399C129.31 5.64799 129.286 5.83999 129.286 6.07999C129.286 6.26399 129.31 6.43999 129.358 6.60799C129.414 6.76799 129.506 6.87599 129.634 6.93199C129.77 6.98799 129.914 7.01599 130.066 7.01599C130.394 7.01599 130.718 6.90399 131.038 6.67999C131.358 6.44799 131.642 6.20799 131.89 5.95999C132.114 5.73599 132.322 5.48399 132.514 5.20399C132.714 4.91599 132.882 4.65199 133.018 4.41199C133.154 4.16399 133.234 3.98399 133.258 3.87199C133.29 3.73599 133.378 3.66799 133.522 3.66799C133.61 3.66799 133.69 3.70399 133.762 3.77599C133.834 3.83999 133.854 3.92799 133.822 4.03999C133.774 4.20799 133.678 4.42799 133.534 4.69999C133.398 4.97199 133.23 5.25599 133.03 5.55199C132.838 5.83999 132.634 6.10399 132.418 6.34399C132.242 6.54399 132.038 6.74799 131.806 6.95599C131.574 7.15599 131.322 7.32799 131.05 7.47199C130.778 7.60799 130.494 7.67599 130.198 7.67599Z" fill="black"/>
<path d="M135.404 8.65999C135.372 8.65999 135.344 8.65599 135.32 8.64799C135.296 8.64799 135.268 8.64399 135.236 8.63599C135.012 8.57999 134.792 8.49199 134.576 8.37199C134.368 8.25199 134.196 8.07599 134.06 7.84399C133.924 7.60399 133.856 7.29199 133.856 6.90799C133.856 6.75599 133.868 6.59199 133.892 6.41599C133.932 6.13599 134.004 5.80799 134.108 5.43199C134.22 5.04799 134.352 4.64799 134.504 4.23199H134.492C134.444 4.23199 134.4 4.23999 134.36 4.25599C134.32 4.27199 134.28 4.27999 134.24 4.27999C134.112 4.27999 134.048 4.20399 134.048 4.05199C134.048 3.96399 134.084 3.87999 134.156 3.79999C134.228 3.71999 134.296 3.67999 134.36 3.67999L134.72 3.66799C134.92 3.14799 135.12 2.65599 135.32 2.19199C135.528 1.71999 135.704 1.34799 135.848 1.07599C135.888 1.00399 135.944 0.951992 136.016 0.919992C136.096 0.879992 136.176 0.859992 136.256 0.859992C136.336 0.859992 136.404 0.879992 136.46 0.919992C136.524 0.951992 136.556 0.999993 136.556 1.06399C136.556 1.07999 136.548 1.11199 136.532 1.15999L135.788 2.77999C135.716 2.93199 135.648 3.07599 135.584 3.21199C135.528 3.34799 135.468 3.48399 135.404 3.61999C135.564 3.61999 135.728 3.62399 135.896 3.63199C136.072 3.63999 136.268 3.65599 136.484 3.67999C136.524 3.68799 136.564 3.71599 136.604 3.76399C136.644 3.81199 136.664 3.86399 136.664 3.91999C136.664 3.95999 136.648 3.99999 136.616 4.03999C136.592 4.07199 136.536 4.09199 136.448 4.09999C136.256 4.12399 136.044 4.13999 135.812 4.14799C135.58 4.14799 135.372 4.15199 135.188 4.15999C135.004 4.64799 134.856 5.09199 134.744 5.49199C134.64 5.89199 134.556 6.26799 134.492 6.61999C134.484 6.67599 134.476 6.73199 134.468 6.78799C134.468 6.84399 134.468 6.89599 134.468 6.94399C134.468 7.30399 134.564 7.57199 134.756 7.74799C134.948 7.92399 135.164 8.04799 135.404 8.11999C135.548 8.16799 135.648 8.21599 135.704 8.26399C135.768 8.31999 135.8 8.37199 135.8 8.41999C135.8 8.48399 135.76 8.53999 135.68 8.58799C135.608 8.63599 135.516 8.65999 135.404 8.65999Z" fill="black"/>
<path d="M138.38 8.68399C138.316 8.68399 138.24 8.67199 138.152 8.64799C137.664 8.48799 137.308 8.22399 137.084 7.85599C136.86 7.47999 136.748 7.08399 136.748 6.66799C136.748 6.60399 136.748 6.54399 136.748 6.48799C136.756 6.42399 136.764 6.36399 136.772 6.30799C136.844 5.85199 136.996 5.44799 137.228 5.09599C137.468 4.74399 137.736 4.45599 138.032 4.23199C138.336 3.99999 138.612 3.85199 138.86 3.78799C139.02 3.74799 139.18 3.71599 139.34 3.69199C139.5 3.65999 139.656 3.64399 139.808 3.64399C140.192 3.64399 140.52 3.72799 140.792 3.89599C141.064 4.06399 141.2 4.33999 141.2 4.72399C141.2 4.93999 141.132 5.13599 140.996 5.31199C140.868 5.48799 140.704 5.63999 140.504 5.76799C140.312 5.88799 140.124 5.98399 139.94 6.05599C139.66 6.16799 139.34 6.25199 138.98 6.30799C138.628 6.36399 138.296 6.39199 137.984 6.39199C137.784 6.39199 137.6 6.37999 137.432 6.35599V6.36799C137.432 6.39999 137.428 6.43199 137.42 6.46399C137.412 6.48799 137.408 6.51599 137.408 6.54799C137.4 6.57999 137.396 6.61199 137.396 6.64399C137.396 6.66799 137.396 6.69199 137.396 6.71599C137.396 6.96399 137.444 7.18399 137.54 7.37599C137.644 7.55999 137.764 7.71999 137.9 7.85599C138.036 7.98399 138.148 8.08799 138.236 8.16799C138.38 8.23999 138.48 8.30799 138.536 8.37199C138.6 8.44399 138.632 8.49999 138.632 8.53999C138.632 8.63599 138.548 8.68399 138.38 8.68399ZM138.308 5.85199C138.548 5.85199 138.8 5.83599 139.064 5.80399C139.328 5.76399 139.572 5.69199 139.796 5.58799C139.972 5.49999 140.136 5.38399 140.288 5.23999C140.44 5.08799 140.516 4.90799 140.516 4.69999C140.516 4.53999 140.452 4.41999 140.324 4.33999C140.196 4.25999 140.016 4.21999 139.784 4.21999C139.52 4.21999 139.232 4.26799 138.92 4.36399C138.808 4.39599 138.668 4.47199 138.5 4.59199C138.34 4.71199 138.176 4.87599 138.008 5.08399C137.84 5.28399 137.7 5.52399 137.588 5.80399C137.684 5.81199 137.792 5.82399 137.912 5.83999C138.04 5.84799 138.172 5.85199 138.308 5.85199Z" fill="black"/>
<path d="M142.126 7.80799C142.054 7.80799 141.986 7.77999 141.922 7.72399C141.866 7.65999 141.838 7.55599 141.838 7.41199C141.838 7.37999 141.838 7.34799 141.838 7.31599C141.846 7.27599 141.854 7.23599 141.862 7.19599C141.934 6.84399 142.026 6.47199 142.138 6.07999C142.258 5.68799 142.378 5.31999 142.498 4.97599C142.618 4.62399 142.706 4.34799 142.762 4.14799C142.802 4.01999 142.858 3.92799 142.93 3.87199C143.01 3.81599 143.09 3.78799 143.17 3.78799C143.258 3.78799 143.33 3.81599 143.386 3.87199C143.45 3.91999 143.482 3.98799 143.482 4.07599C143.482 4.14799 143.458 4.22799 143.41 4.31599C143.362 4.40399 143.302 4.54399 143.23 4.73599C143.166 4.92799 143.102 5.11999 143.038 5.31199C142.974 5.50399 142.918 5.64799 142.87 5.74399C143.15 5.47199 143.402 5.24799 143.626 5.07199C143.85 4.89599 144.146 4.72399 144.514 4.55599C144.674 4.47599 144.882 4.43599 145.138 4.43599C145.322 4.43599 145.506 4.47199 145.69 4.54399C145.874 4.61599 146.026 4.74399 146.146 4.92799C146.266 5.11199 146.326 5.37199 146.326 5.70799C146.326 5.83599 146.254 5.89999 146.11 5.89999C146.054 5.89999 145.994 5.87599 145.93 5.82799C145.874 5.77999 145.826 5.69999 145.786 5.58799C145.73 5.40399 145.642 5.25999 145.522 5.15599C145.41 5.04399 145.262 4.98799 145.078 4.98799C144.966 4.98799 144.838 5.01199 144.694 5.05999C144.518 5.11599 144.298 5.22399 144.034 5.38399C143.77 5.53599 143.498 5.72799 143.218 5.95999C142.946 6.19199 142.694 6.45599 142.462 6.75199C142.462 6.80799 142.45 6.87199 142.426 6.94399C142.41 7.01599 142.402 7.09599 142.402 7.18399C142.402 7.19999 142.41 7.23999 142.426 7.30399C142.442 7.36799 142.45 7.43199 142.45 7.49599C142.45 7.58399 142.414 7.65999 142.342 7.72399C142.278 7.77999 142.206 7.80799 142.126 7.80799Z" fill="black"/>
<path d="M146.979 8.46799C146.923 8.46799 146.859 8.46399 146.787 8.45599C146.723 8.44799 146.655 8.43599 146.583 8.41999C146.479 8.39599 146.427 8.31999 146.427 8.19199C146.427 8.11999 146.455 8.05599 146.511 7.99999C146.567 7.93599 146.647 7.91199 146.751 7.92799C146.839 7.93599 146.979 7.91599 147.171 7.86799C147.371 7.81999 147.591 7.75599 147.831 7.67599C148.183 7.54799 148.471 7.41199 148.695 7.26799C148.919 7.12399 149.103 6.95599 149.247 6.76399C149.399 6.57199 149.475 6.38799 149.475 6.21199C149.475 6.13199 149.459 6.05599 149.427 5.98399C149.395 5.90399 149.335 5.82799 149.247 5.75599C149.111 5.63599 148.947 5.52399 148.755 5.41999C148.563 5.31599 148.375 5.20799 148.191 5.09599C148.007 4.97599 147.851 4.84399 147.723 4.69999C147.603 4.54799 147.543 4.36399 147.543 4.14799C147.543 3.95599 147.611 3.79199 147.747 3.65599C147.883 3.51199 148.039 3.39599 148.215 3.30799C148.399 3.21199 148.555 3.14399 148.683 3.10399C148.811 3.06399 148.939 3.03599 149.067 3.01999C149.195 2.99599 149.323 2.98399 149.451 2.98399C149.603 2.98399 149.747 3.00399 149.883 3.04399C150.027 3.07599 150.163 3.13599 150.291 3.22399C150.363 3.27199 150.415 3.32799 150.447 3.39199C150.479 3.45599 150.495 3.51999 150.495 3.58399C150.495 3.67199 150.467 3.75199 150.411 3.82399C150.363 3.88799 150.295 3.91999 150.207 3.91999C150.143 3.91999 150.059 3.88799 149.955 3.82399H149.967C149.791 3.69599 149.587 3.63199 149.355 3.63199C149.227 3.63199 149.111 3.64799 149.007 3.67999C148.839 3.71999 148.675 3.77199 148.515 3.83599C148.355 3.89999 148.255 3.99999 148.215 4.13599C148.191 4.23999 148.251 4.35599 148.395 4.48399C148.547 4.60399 148.735 4.72799 148.959 4.85599C149.183 4.97599 149.391 5.09599 149.583 5.21599C149.767 5.31999 149.915 5.45999 150.027 5.63599C150.139 5.81199 150.195 5.99999 150.195 6.19999C150.195 6.44799 150.103 6.68799 149.919 6.91999C149.623 7.27999 149.315 7.55999 148.995 7.75999C148.683 7.95999 148.331 8.12399 147.939 8.25199C147.723 8.32399 147.543 8.37599 147.399 8.40799C147.255 8.44799 147.115 8.46799 146.979 8.46799Z" fill="black"/>
</g>
</svg>
